<svg width="76" height="76" viewBox="0 0 76 76" fill="none" xmlns="http://www.w3.org/2000/svg">
<g id="Icon pack">
<path id="Vector" d="M19.9047 60.1667C12.4094 60.1667 6.33325 54.162 6.33325 46.7549C6.33325 39.3477 12.4094 33.3431 19.9047 33.3431C20.8044 33.3431 21.6837 33.4295 22.5344 33.5948M22.5344 33.5948C21.8089 31.6597 21.4126 29.5668 21.4126 27.3824C21.4126 17.5062 29.5141 9.5 39.5079 9.5C48.8169 9.5 56.4841 16.4467 57.4911 25.3808M22.5344 33.5948C24.3218 33.9416 25.9833 34.6351 27.4444 35.6016M45.5397 25.4195C47.4261 24.7605 49.4563 24.402 51.5713 24.402C53.6445 24.402 55.636 24.7465 57.4911 25.3808M57.4911 25.3808C64.5777 27.8041 69.6666 34.4568 69.6666 42.2842C69.6666 50.8563 63.5631 58.02 55.4166 59.762" stroke="#9E9E9E" stroke-width="3.5" stroke-linecap="round"/>
<path id="Vector_2" d="M38.0001 50.6667V69.6667M38.0001 50.6667L44.3334 57M38.0001 50.6667L31.6667 57" stroke="#9E9E9E" stroke-width="3.5" stroke-linecap="round" stroke-linejoin="round"/>
</g>
</svg>
