<svg width="88" height="31" viewBox="0 0 88 31" fill="none" xmlns="http://www.w3.org/2000/svg">
<g id="Group 48098717">
<g id="Vector">
<path d="M0.0149102 30.6923L0 0.00106943C0 0.00106943 8.17877 -0.179596 15.2403 4.15547C15.2403 4.15547 0.78957 10.7633 0.0149102 30.6923Z" fill="#0E3F41"/>
<path d="M30.4656 30.6923L30.4805 0.00106943C30.4805 0.00106943 22.3018 -0.179596 15.2403 4.15547C15.2403 4.15547 29.6909 10.7633 30.4656 30.6923Z" fill="#0E3F41"/>
<path d="M44.2942 30.1234C42.8831 30.1234 41.6658 29.8087 40.6425 29.1793C39.6255 28.5435 38.8405 27.6573 38.2875 26.5205C37.7408 25.3774 37.4675 24.048 37.4675 22.5323C37.4675 21.0167 37.7408 19.6809 38.2875 18.5249C38.8405 17.3624 39.6096 16.4569 40.5948 15.8083C41.5864 15.1532 42.7432 14.8257 44.0653 14.8257C44.8281 14.8257 45.5813 14.9541 46.325 15.211C47.0687 15.4679 47.7456 15.8853 48.3558 16.4633C48.966 17.0349 49.4523 17.7927 49.8146 18.7368C50.1769 19.6809 50.3581 20.8433 50.3581 22.2241V23.1874H39.0693V21.2222H48.0698C48.0698 20.3873 47.9045 19.6423 47.574 18.9873C47.2498 18.3322 46.7858 17.8152 46.182 17.4363C45.5845 17.0574 44.8789 16.8679 44.0653 16.8679C43.1691 16.8679 42.3936 17.0927 41.7389 17.5423C41.0906 17.9854 40.5916 18.5634 40.242 19.2763C39.8924 19.9891 39.7176 20.7534 39.7176 21.569V22.8791C39.7176 23.9966 39.9083 24.9439 40.2897 25.721C40.6774 26.4916 41.2145 27.0793 41.901 27.4839C42.5875 27.882 43.3852 28.0811 44.2942 28.0811C44.8853 28.0811 45.4192 27.9976 45.896 27.8307C46.379 27.6573 46.7954 27.4004 47.145 27.06C47.4946 26.7132 47.7647 26.2829 47.9554 25.7691L50.1292 26.3857C49.9004 27.1306 49.5159 27.7857 48.9756 28.3509C48.4353 28.9096 47.7679 29.3463 46.9733 29.661C46.1788 29.9693 45.2858 30.1234 44.2942 30.1234Z" fill="#0E3F41"/>
<path d="M56.0311 10.0861V29.8151H53.7809V10.0861H56.0311Z" fill="#0E3F41"/>
<path d="M66.1018 30.1234C64.7797 30.1234 63.6197 29.8055 62.6218 29.1697C61.6302 28.5339 60.8547 27.6444 60.2954 26.5013C59.7424 25.3581 59.4659 24.0223 59.4659 22.4938C59.4659 20.9525 59.7424 19.607 60.2954 18.4574C60.8547 17.3079 61.6302 16.4152 62.6218 15.7794C63.6197 15.1436 64.7797 14.8257 66.1018 14.8257C67.4239 14.8257 68.5808 15.1436 69.5724 15.7794C70.5703 16.4152 71.3458 17.3079 71.8988 18.4574C72.4581 19.607 72.7378 20.9525 72.7378 22.4938C72.7378 24.0223 72.4581 25.3581 71.8988 26.5013C71.3458 27.6444 70.5703 28.5339 69.5724 29.1697C68.5808 29.8055 67.4239 30.1234 66.1018 30.1234ZM66.1018 28.0811C67.1061 28.0811 67.9324 27.821 68.5808 27.3008C69.2291 26.7806 69.709 26.0967 70.0205 25.2489C70.3319 24.4012 70.4877 23.4828 70.4877 22.4938C70.4877 21.5048 70.3319 20.5832 70.0205 19.729C69.709 18.8749 69.2291 18.1845 68.5808 17.6579C67.9324 17.1312 67.1061 16.8679 66.1018 16.8679C65.0975 16.8679 64.2712 17.1312 63.6229 17.6579C62.9745 18.1845 62.4946 18.8749 62.1832 19.729C61.8717 20.5832 61.716 21.5048 61.716 22.4938C61.716 23.4828 61.8717 24.4012 62.1832 25.2489C62.4946 26.0967 62.9745 26.7806 63.6229 27.3008C64.2712 27.821 65.0975 28.0811 66.1018 28.0811Z" fill="#0E3F41"/>
<path d="M78.4227 20.9139V29.8151H76.1726V15.0183H78.3464V17.3303H78.5371C78.8804 16.5789 79.4016 15.9752 80.1008 15.5193C80.8 15.0569 81.7026 14.8257 82.8086 14.8257C83.8001 14.8257 84.6678 15.0312 85.4115 15.4422C86.1552 15.8468 86.7336 16.4633 87.1467 17.2918C87.5599 18.1138 87.7665 19.1542 87.7665 20.413V29.8151H85.5163V20.5671C85.5163 19.4047 85.2176 18.4992 84.6201 17.8505C84.0226 17.1955 83.2027 16.8679 82.1602 16.8679C81.442 16.8679 80.8 17.0253 80.2343 17.34C79.6749 17.6547 79.2332 18.1138 78.909 18.7175C78.5848 19.3212 78.4227 20.0534 78.4227 20.9139Z" fill="#0E3F41"/>
</g>
</g>
</svg>
