<svg width="20" height="20" viewBox="0 0 20 20" fill="none" xmlns="http://www.w3.org/2000/svg">
<path d="M17.7083 10.0001C17.7083 14.2572 14.2572 17.7084 10 17.7084V18.9584C14.9476 18.9584 18.9583 14.9477 18.9583 10.0001H17.7083ZM10 17.7084C5.74281 17.7084 2.29167 14.2572 2.29167 10.0001H1.04167C1.04167 14.9477 5.05245 18.9584 10 18.9584V17.7084ZM2.29167 10.0001C2.29167 5.74289 5.74281 2.29175 10 2.29175V1.04175C5.05245 1.04175 1.04167 5.05253 1.04167 10.0001H2.29167ZM12.9167 11.8751C10.2703 11.8751 8.125 9.72975 8.125 7.08341H6.875C6.875 10.4202 9.57992 13.1251 12.9167 13.1251V11.8751ZM17.0211 9.55758C16.181 10.9478 14.6568 11.8751 12.9167 11.8751V13.1251C15.1124 13.1251 17.0339 11.9533 18.091 10.204L17.0211 9.55758ZM8.125 7.08341C8.125 5.34326 9.05225 3.81908 10.4425 2.97897L9.79609 1.90912C8.04675 2.96616 6.875 4.88766 6.875 7.08341H8.125ZM10 2.29175C9.92626 2.29175 9.83976 2.25848 9.77701 2.19315C9.72384 2.13781 9.7115 2.08545 9.70859 2.06427C9.70509 2.03831 9.70684 1.96306 9.79609 1.90912L10.4425 2.97897C10.8618 2.72562 10.9967 2.26173 10.9473 1.89697C10.8962 1.5178 10.5972 1.04175 10 1.04175V2.29175ZM18.091 10.204C18.037 10.2932 17.9618 10.295 17.9358 10.2915C17.9147 10.2886 17.8623 10.2762 17.8069 10.2231C17.7416 10.1603 17.7083 10.0738 17.7083 10.0001H18.9583C18.9583 9.40291 18.4823 9.10391 18.1031 9.05275C17.7383 9.00341 17.2744 9.13825 17.0211 9.55758L18.091 10.204Z" fill="#A8A8BD"/>
</svg>
